<?xml version="1.0" encoding="UTF-8" standalone="no"?>
<svg xmlns="http://www.w3.org/2000/svg" width="200" height="200" viewBox="0 0 200 200">
  <circle cx="100" cy="100" r="98" fill="#FFFFFF" stroke="#663399" stroke-width="4"/>
  
  <!-- Yüz -->
  <circle cx="100" cy="90" r="50" fill="#F5D0A9"/>
  
  <!-- Saç ve Bıyık -->
  <path d="M100 40 C 70 40, 50 60, 55 90 C 60 95, 65 85, 65 80 
           C 65 60, 80 50, 100 50 C 120 50, 135 60, 135 80 
           C 135 85, 140 95, 145 90 C 150 60, 130 40, 100 40" fill="#CCCCCC"/>
  <path d="M75 105 C 90 115, 110 115, 125 105" stroke="#CCCCCC" stroke-width="4"/>
  
  <!-- Gözler -->
  <ellipse cx="80" cy="85" rx="7" ry="5" fill="#333333"/>
  <ellipse cx="120" cy="85" rx="7" ry="5" fill="#333333"/>
  
  <!-- Gözlük -->
  <ellipse cx="80" cy="85" rx="10" ry="8" stroke="#333333" stroke-width="2" fill="none"/>
  <ellipse cx="120" cy="85" rx="10" ry="8" stroke="#333333" stroke-width="2" fill="none"/>
  <path d="M90 85 L 110 85" stroke="#333333" stroke-width="2" fill="none"/>
  
  <!-- Kaşlar -->
  <path d="M70 75 C 80 70, 90 73, 95 75" stroke="#CCCCCC" stroke-width="2" fill="none"/>
  <path d="M105 75 C 110 73, 120 70, 130 75" stroke="#CCCCCC" stroke-width="2" fill="none"/>
  
  <!-- Burun -->
  <path d="M98 85 C 100 95, 102 95, 104 85 L 100 105" stroke="#D0936F" stroke-width="2" fill="none"/>
  
  <!-- Takım Elbise -->
  <path d="M60 130 C 60 160, 140 160, 140 130 L 130 100 C 110 120, 90 120, 70 100 Z" fill="#663399"/>
  <rect x="95" y="120" width="10" height="30" fill="#FFFFFF"/>
  
  <text x="100" y="180" font-family="Arial" font-size="16" font-weight="bold" text-anchor="middle" fill="#000000">Mansur Yavaş</text>
</svg>