<?xml version="1.0" encoding="UTF-8" standalone="no"?>
<svg xmlns="http://www.w3.org/2000/svg" width="200" height="200" viewBox="0 0 200 200">
  <circle cx="100" cy="100" r="98" fill="#FFFFFF" stroke="#FF8C00" stroke-width="4"/>
  
  <!-- Yüz -->
  <circle cx="100" cy="90" r="50" fill="#F5D0A9"/>
  
  <!-- Saç -->
  <path d="M60 70 C 60 50, 80 35, 100 35 C 120 35, 140 50, 140 70 
           C 140 75, 138 85, 135 90 C 125 85, 120 80, 120 65
           C 120 55, 110 50, 100 50 C 90 50, 80 55, 80 65
           C 80 80, 75 85, 65 90 C 62 85, 60 75, 60 70" fill="#CCCCCC"/>
  
  <!-- Gözler -->
  <ellipse cx="80" cy="85" rx="7" ry="5" fill="#333333"/>
  <ellipse cx="120" cy="85" rx="7" ry="5" fill="#333333"/>
  
  <!-- Kaşlar -->
  <path d="M70 73 C 80 68, 90 70, 95 73" stroke="#CCCCCC" stroke-width="2" fill="none"/>
  <path d="M105 73 C 110 70, 120 68, 130 73" stroke="#CCCCCC" stroke-width="2" fill="none"/>
  
  <!-- Burun -->
  <path d="M96 85 C 98 95, 102 95, 104 85 L 100 105" stroke="#D0936F" stroke-width="2" fill="none"/>
  
  <!-- Ağız -->
  <path d="M85 110 C 95 115, 105 115, 115 110" stroke="#333333" stroke-width="2" fill="none"/>
  
  <!-- Takım Elbise -->
  <path d="M60 130 C 60 160, 140 160, 140 130 L 130 100 C 110 120, 90 120, 70 100 Z" fill="#FF8C00"/>
  <rect x="95" y="120" width="10" height="30" fill="#FFFFFF"/>
  
  <text x="100" y="180" font-family="Arial" font-size="16" font-weight="bold" text-anchor="middle" fill="#000000">Muhittin Böcek</text>
</svg>