<?xml version="1.0" encoding="UTF-8" standalone="no"?>
<svg xmlns="http://www.w3.org/2000/svg" width="200" height="200" viewBox="0 0 200 200">
  <circle cx="100" cy="100" r="98" fill="#FFFFFF" stroke="#0066CC" stroke-width="4"/>
  
  <!-- Yüz -->
  <circle cx="100" cy="90" r="50" fill="#F5D0A9"/>
  
  <!-- Saç -->
  <path d="M100 40 C 70 40, 60 60, 60 80 C 60 85, 70 90, 75 80 
           C 75 60, 80 50, 100 50 C 120 50, 125 60, 125 80 
           C 130 90, 140 85, 140 80 C 140 60, 130 40, 100 40" fill="#333333"/>
  
  <!-- Gözler -->
  <ellipse cx="80" cy="85" rx="7" ry="5" fill="#333333"/>
  <ellipse cx="120" cy="85" rx="7" ry="5" fill="#333333"/>
  
  <!-- Kaşlar -->
  <path d="M70 75 C 80 70, 90 70, 95 75" stroke="#333333" stroke-width="2" fill="none"/>
  <path d="M105 75 C 110 70, 120 70, 130 75" stroke="#333333" stroke-width="2" fill="none"/>
  
  <!-- Burun -->
  <path d="M98 85 C 100 95, 102 95, 104 85 L 100 105" stroke="#D0936F" stroke-width="2" fill="none"/>
  
  <!-- Ağız -->
  <path d="M85 110 C 95 115, 105 115, 115 110" stroke="#333333" stroke-width="2" fill="none"/>
  
  <!-- Takım Elbise -->
  <path d="M60 130 C 60 160, 140 160, 140 130 L 130 100 C 110 120, 90 120, 70 100 Z" fill="#0066CC"/>
  <rect x="95" y="120" width="10" height="30" fill="#FFFFFF"/>
  
  <text x="100" y="180" font-family="Arial" font-size="16" font-weight="bold" text-anchor="middle" fill="#000000">Ekrem İmamoğlu</text>
</svg>