<?xml version="1.0" encoding="UTF-8" standalone="no"?>
<svg xmlns="http://www.w3.org/2000/svg" width="800" height="250" viewBox="0 0 800 250">
  <rect width="800" height="250" fill="#663399"/>
  
  <!-- Ankara Kalesi Silueti -->
  <path d="M200 170 L 200 120 L 220 120 L 220 110 L 240 110 L 240 120 L 260 120 L 260 100 L 280 100 L 280 120 
           L 300 120 L 300 110 L 320 110 L 320 120 L 340 120 L 340 90 L 360 90 L 360 120 L 380 120 L 380 110 
           L 400 110 L 400 130 L 420 130 L 420 110 L 440 110 L 440 120 L 460 120 L 460 100 L 480 100 L 480 120 
           L 500 120 L 500 170 Z" fill="#442266"/>
           
  <!-- Anıtkabir -->
  <rect x="550" y="130" width="100" height="40" fill="#FFCC00"/>
  <rect x="560" y="100" width="80" height="30" fill="#FFCC00"/>
  <rect x="570" y="80" width="60" height="20" fill="#FFCC00"/>
  <rect x="590" y="60" width="20" height="20" fill="#FFCC00"/>
  
  <!-- Atakule -->
  <rect x="150" y="80" width="20" height="90" fill="#442266"/>
  <circle cx="160" cy="70" r="20" fill="#442266"/>
  
  <text x="50" y="50" font-family="Arial" font-size="30" font-weight="bold" fill="#FFFFFF">ANKARA</text>
</svg>